<svg width="7299" height="1245" viewBox="0 0 7299 1245" fill="none" xmlns="http://www.w3.org/2000/svg">
<path d="M2430.8 651.6C2423.8 476.4 2276.2 335.3 2095 335.3C1909.6 335.3 1758.4 483.2 1758.4 664.7C1758.4 846.1 1909.6 994 2095 994C2166.3 994 2232.8 972.1 2287.4 934.4V987.8H2432.2L2430.8 653V651.6ZM2095 852.9C1989.3 852.9 1903.3 768.7 1903.3 665.3C1903.3 561.9 1989.3 477.7 2095 477.7C2200.6 477.7 2286.7 561.9 2286.7 665.3C2286.7 768.7 2200.6 852.9 2095 852.9Z" fill="#343CED"/>
<path d="M1504.3 798.2C1487 814.6 1467 828.3 1444.3 837.9C1422.2 847.5 1397.4 852.3 1371.3 852.3C1357.5 852.3 1344.4 850.9 1332 848.1C1319.6 845.4 1307.2 841.3 1295.5 836.5C1283.77 831.033 1272.73 824.867 1262.4 818C1252 810.5 1242.4 802.3 1234.1 793.4L1560.1 668.1L1698.6 614.7C1691 566.7 1673.8 521.6 1647.6 482.5C1588.3 393.5 1486.3 335.3 1371.3 335.3C1188.7 335.3 1039.8 483.2 1039.8 664.7C1039.8 681.8 1041.2 698.2 1043.9 714.6C1051.5 762.6 1068.8 807.8 1094.9 846.8C1110.1 868.7 1127.3 889.2 1147.3 907C1167.3 924.8 1188.7 940.6 1212.8 953.6C1236.2 966.6 1261.7 976.9 1288.6 983.7C1315.4 990.6 1343 994 1371.9 994C1417.4 994 1461.5 985.1 1500.8 968C1540.8 951.5 1575.9 926.9 1606.2 897.4C1636.6 867.3 1660.7 832.4 1677.2 792.7C1684.1 776.3 1689.6 758.5 1693.7 740.7H1543.5C1534.57 762.567 1521.5 781.733 1504.3 798.2ZM1371.9 476.4C1425.7 476.4 1474.6 499.6 1509.1 535.3L1183.1 660.5C1185.2 559.2 1269.3 476.4 1371.9 476.4Z" fill="#343CED"/>
<path d="M2916.1 989H3060.3L3061 603.5C3061 437.9 2954.1 330.4 2789.2 330.4C2627.1 330.4 2514 442.8 2514 603.5L2513.3 988.3H2657.5L2658.2 599.3C2658.2 524.8 2713.3 470.4 2789.2 470.4C2907.2 470.4 2916.8 569 2916.8 599.3L2916.1 989Z" fill="#343CED"/>
<path d="M678.5 329.4L566 241.8L475 362.5C337 297 167.4 333.6 70.8001 458.4C-41.6999 603.2 -15.3999 811.5 129.4 923.9C184.6 966.7 248.7 989.4 313.6 992.9C419.1 999.1 526 955 595 865.3C692.3 740.5 685.4 566.7 588.1 449.4L678.5 329.4ZM481.9 777.7C417.8 859.8 299.1 875 216.4 810.8C134.3 746.7 119.1 627.4 183.3 545.3C214.3 505.3 259.1 479.8 308.8 473.6C320.5 472.2 332.2 471.5 344 472.2C381.9 474.3 418.5 488.1 448.8 511.5C530.9 576.3 546.1 695.6 481.9 777.7Z" fill="#343CED"/>
<path d="M685.4 929.3C666.8 953.4 646.1 974.8 623.3 994.8C601.2 1013.4 577.1 1030.7 551.6 1045.2C526.7 1059 499.8 1070.7 472.9 1079.7C446 1088.6 417.7 1094.8 389.5 1098.3C361.2 1101.7 332.9 1103.1 303.9 1101C275 1099 246.7 1094.1 219.1 1087.2L212.9 1110L184.6 1225.2C220.5 1234.8 257 1240.3 294.3 1243.1C295.6 1243.1 297.7 1243.1 299.1 1243.1C335 1245.2 371.5 1243.8 406.7 1239.7C444 1234.8 481.2 1226.5 517.1 1214.8C552.9 1203.1 588.1 1187.9 621.2 1169.3C655 1150.7 686.8 1127.9 716.4 1103.1C746.8 1077.6 774.4 1048.6 798.5 1016.9C801.9 1012.8 804.7 1007.9 808.2 1003.1L693.7 918.3C690.2 921.7 688.1 925.9 685.4 929.3Z" fill="#343CED"/>
<path d="M917.1 725.5L916.5 0H772.3L773 722.1C773 874.5 875.1 982.8 1024.1 993.8V851.7C961.3 841.4 917.1 791.7 917.1 725.5Z" fill="#343CED"/>
<path d="M3639.55 425.528C3828.39 425.528 3893.01 544.716 3893.01 678.264C3893.01 811.812 3824.08 931 3639.55 931H3467.95V425.528H3639.55ZM3656.07 867.816C3775.26 867.816 3818.34 774.476 3818.34 678.264C3818.34 582.052 3775.26 488.712 3656.07 488.712H3542.62V867.816H3656.07ZM4319.84 742.166C4319.84 752.218 4319.12 759.398 4317.69 767.296H4043.41C4048.44 826.172 4088.65 873.56 4155.42 873.56C4204.96 873.56 4229.37 849.148 4242.3 806.786H4313.38C4298.3 874.996 4248.04 936.744 4153.98 936.744C4038.39 936.744 3975.2 851.302 3975.2 747.192C3975.2 636.62 4047 557.64 4152.55 557.64C4234.4 557.64 4319.84 611.49 4319.84 742.166ZM4047 709.856H4250.91C4246.61 656.006 4212.14 617.952 4156.14 617.952C4087.21 617.952 4057.05 660.314 4047 709.856ZM4367.46 563.384H4442.13L4539.78 854.892C4544.09 867.098 4545.52 877.15 4545.52 889.356C4545.52 893.664 4546.24 898.69 4551.27 898.69C4556.29 898.69 4557.01 893.664 4557.01 889.356C4557.01 877.15 4558.45 867.098 4562.76 854.892L4660.4 563.384H4735.08L4602.96 931H4499.57L4367.46 563.384ZM5127.17 742.166C5127.17 752.218 5126.45 759.398 5125.02 767.296H4850.74C4855.77 826.172 4895.98 873.56 4962.75 873.56C5012.29 873.56 5036.7 849.148 5049.63 806.786H5120.71C5105.63 874.996 5055.37 936.744 4961.31 936.744C4845.72 936.744 4782.53 851.302 4782.53 747.192C4782.53 636.62 4854.33 557.64 4959.88 557.64C5041.73 557.64 5127.17 611.49 5127.17 742.166ZM4854.33 709.856H5058.24C5053.94 656.006 5019.47 617.952 4963.47 617.952C4894.54 617.952 4864.38 660.314 4854.33 709.856ZM5220.74 414.04H5289.67V931H5220.74V414.04ZM5561.08 557.64C5672.37 557.64 5739.14 643.082 5739.14 747.192C5739.14 851.302 5672.37 936.744 5561.08 936.744C5449.79 936.744 5383.02 851.302 5383.02 747.192C5383.02 643.082 5449.79 557.64 5561.08 557.64ZM5561.08 873.56C5630.01 873.56 5670.22 816.838 5670.22 747.192C5670.22 677.546 5630.01 620.824 5561.08 620.824C5492.15 620.824 5451.94 677.546 5451.94 747.192C5451.94 816.838 5492.15 873.56 5561.08 873.56ZM5901.37 563.384V592.104C5901.37 605.746 5899.22 616.516 5894.19 631.594C5892.04 637.338 5887.73 644.518 5894.19 646.672C5899.94 648.826 5902.09 641.646 5902.81 639.492C5924.35 592.104 5967.43 557.64 6026.3 557.64C6121.8 557.64 6188.57 638.056 6188.57 747.192C6188.57 856.328 6121.8 936.744 6026.3 936.744C5968.86 936.744 5925.07 902.998 5902.81 853.456C5902.09 851.302 5899.94 845.558 5895.63 846.994C5888.45 849.148 5892.04 855.61 5894.19 861.354C5899.22 877.15 5901.37 887.202 5901.37 900.126V1068.86H5832.44V563.384H5901.37ZM6011.94 873.56C6083.74 873.56 6119.64 815.402 6119.64 747.192C6119.64 678.982 6083.74 620.824 6011.94 620.824C5946.61 620.824 5901.37 678.982 5901.37 747.192C5901.37 815.402 5946.61 873.56 6011.94 873.56ZM6617.72 742.166C6617.72 752.218 6617 759.398 6615.57 767.296H6341.29C6346.32 826.172 6386.53 873.56 6453.3 873.56C6502.84 873.56 6527.25 849.148 6540.18 806.786H6611.26C6596.18 874.996 6545.92 936.744 6451.86 936.744C6336.27 936.744 6273.08 851.302 6273.08 747.192C6273.08 636.62 6344.88 557.64 6450.43 557.64C6532.28 557.64 6617.72 611.49 6617.72 742.166ZM6344.88 709.856H6548.79C6544.49 656.006 6510.02 617.952 6454.02 617.952C6385.09 617.952 6354.93 660.314 6344.88 709.856ZM6774.48 648.826C6778.07 649.544 6780.22 645.954 6781.66 642.364C6804.63 583.488 6825.45 557.64 6918.08 557.64V628.004C6811.09 620.824 6780.22 658.878 6780.22 755.09V931H6711.29V563.384H6780.22V587.796C6780.22 602.874 6778.78 614.362 6772.32 635.902C6770.89 641.646 6768.73 647.39 6774.48 648.826ZM6976.64 803.196H7044.13C7044.85 831.198 7067.82 876.432 7139.62 876.432C7209.99 876.432 7229.37 848.43 7229.37 824.736C7229.37 791.708 7198.5 781.656 7114.49 773.04C7018.28 762.988 6988.13 719.19 6988.13 671.084C6988.13 615.798 7038.39 557.64 7138.91 557.64C7231.53 557.64 7281.79 610.772 7286.81 679.7H7219.32C7217.17 656.006 7201.37 617.952 7136.75 617.952C7078.59 617.952 7057.05 641.646 7057.05 666.058C7057.05 689.752 7070.7 705.548 7150.39 714.164C7249.48 724.934 7298.3 753.654 7298.3 813.966C7298.3 888.638 7237.27 936.744 7136.75 936.744C7036.95 936.744 6980.23 884.33 6976.64 803.196Z" fill="#1E1E1E"/>
</svg>
