<svg width="7298" height="1266" viewBox="0 0 7298 1266" fill="none" xmlns="http://www.w3.org/2000/svg">
<path d="M2429.8 651.6C2422.8 476.4 2275.2 335.3 2094 335.3C1908.6 335.3 1757.4 483.2 1757.4 664.7C1757.4 846.1 1908.6 994 2094 994C2165.3 994 2231.8 972.1 2286.4 934.4V987.8H2431.2L2429.8 653V651.6ZM2094 852.9C1988.3 852.9 1902.3 768.7 1902.3 665.3C1902.3 561.9 1988.3 477.7 2094 477.7C2199.6 477.7 2285.7 561.9 2285.7 665.3C2285.7 768.7 2199.6 852.9 2094 852.9Z" fill="#343CED"/>
<path d="M1503.3 798.2C1486 814.6 1466 828.3 1443.3 837.9C1421.2 847.5 1396.4 852.3 1370.3 852.3C1356.5 852.3 1343.4 850.9 1331 848.1C1318.6 845.4 1306.2 841.3 1294.5 836.5C1282.77 831.033 1271.73 824.867 1261.4 818C1251 810.5 1241.4 802.3 1233.1 793.4L1559.1 668.1L1697.6 614.7C1690 566.7 1672.8 521.6 1646.6 482.5C1587.3 393.5 1485.3 335.3 1370.3 335.3C1187.7 335.3 1038.8 483.2 1038.8 664.7C1038.8 681.8 1040.2 698.2 1042.9 714.6C1050.5 762.6 1067.8 807.8 1093.9 846.8C1109.1 868.7 1126.3 889.2 1146.3 907C1166.3 924.8 1187.7 940.6 1211.8 953.6C1235.2 966.6 1260.7 976.9 1287.6 983.7C1314.4 990.6 1342 994 1370.9 994C1416.4 994 1460.5 985.1 1499.8 968C1539.8 951.5 1574.9 926.9 1605.2 897.4C1635.6 867.3 1659.7 832.4 1676.2 792.7C1683.1 776.3 1688.6 758.5 1692.7 740.7H1542.5C1533.57 762.567 1520.5 781.733 1503.3 798.2ZM1370.9 476.4C1424.7 476.4 1473.6 499.6 1508.1 535.3L1182.1 660.5C1184.2 559.2 1268.3 476.4 1370.9 476.4Z" fill="#343CED"/>
<path d="M2915.1 989H3059.3L3060 603.5C3060 437.9 2953.1 330.4 2788.2 330.4C2626.1 330.4 2513 442.8 2513 603.5L2512.3 988.3H2656.5L2657.2 599.3C2657.2 524.8 2712.3 470.4 2788.2 470.4C2906.2 470.4 2915.8 569 2915.8 599.3L2915.1 989Z" fill="#343CED"/>
<path d="M677.5 329.4L565 241.8L474 362.5C336 297 166.4 333.6 69.8001 458.4C-42.6999 603.2 -16.3999 811.5 128.4 923.9C183.6 966.7 247.7 989.4 312.6 992.9C418.1 999.1 525 955 594 865.3C691.3 740.5 684.4 566.7 587.1 449.4L677.5 329.4ZM480.9 777.7C416.8 859.8 298.1 875 215.4 810.8C133.3 746.7 118.1 627.4 182.3 545.3C213.3 505.3 258.1 479.8 307.8 473.6C319.5 472.2 331.2 471.5 343 472.2C380.9 474.3 417.5 488.1 447.8 511.5C529.9 576.3 545.1 695.6 480.9 777.7Z" fill="#343CED"/>
<path d="M684.4 929.3C665.8 953.4 645.1 974.8 622.3 994.8C600.2 1013.4 576.1 1030.7 550.6 1045.2C525.7 1059 498.8 1070.7 471.9 1079.7C445 1088.6 416.7 1094.8 388.5 1098.3C360.2 1101.7 331.9 1103.1 302.9 1101C274 1099 245.7 1094.1 218.1 1087.2L211.9 1110L183.6 1225.2C219.5 1234.8 256 1240.3 293.3 1243.1C294.6 1243.1 296.7 1243.1 298.1 1243.1C334 1245.2 370.5 1243.8 405.7 1239.7C443 1234.8 480.2 1226.5 516.1 1214.8C551.9 1203.1 587.1 1187.9 620.2 1169.3C654 1150.7 685.8 1127.9 715.4 1103.1C745.8 1077.6 773.4 1048.6 797.5 1016.9C800.9 1012.8 803.7 1007.9 807.2 1003.1L692.7 918.3C689.2 921.7 687.1 925.9 684.4 929.3Z" fill="#343CED"/>
<path d="M916.1 725.5L915.5 0H771.3L772 722.1C772 874.5 874.1 982.8 1023.1 993.8V851.7C960.3 841.4 916.1 791.7 916.1 725.5Z" fill="#343CED"/>
<path d="M3638.55 425.528C3827.39 425.528 3892.01 544.716 3892.01 678.264C3892.01 811.812 3823.08 931 3638.55 931H3466.95V425.528H3638.55ZM3655.07 867.816C3774.26 867.816 3817.34 774.476 3817.34 678.264C3817.34 582.052 3774.26 488.712 3655.07 488.712H3541.62V867.816H3655.07ZM4318.84 742.166C4318.84 752.218 4318.12 759.398 4316.69 767.296H4042.41C4047.44 826.172 4087.65 873.56 4154.42 873.56C4203.96 873.56 4228.37 849.148 4241.3 806.786H4312.38C4297.3 874.996 4247.04 936.744 4152.98 936.744C4037.39 936.744 3974.2 851.302 3974.2 747.192C3974.2 636.62 4046 557.64 4151.55 557.64C4233.4 557.64 4318.84 611.49 4318.84 742.166ZM4046 709.856H4249.91C4245.61 656.006 4211.14 617.952 4155.14 617.952C4086.21 617.952 4056.05 660.314 4046 709.856ZM4366.46 563.384H4441.13L4538.78 854.892C4543.09 867.098 4544.52 877.15 4544.52 889.356C4544.52 893.664 4545.24 898.69 4550.27 898.69C4555.29 898.69 4556.01 893.664 4556.01 889.356C4556.01 877.15 4557.45 867.098 4561.76 854.892L4659.4 563.384H4734.08L4601.96 931H4498.57L4366.46 563.384ZM5126.17 742.166C5126.17 752.218 5125.45 759.398 5124.02 767.296H4849.74C4854.77 826.172 4894.98 873.56 4961.75 873.56C5011.29 873.56 5035.7 849.148 5048.63 806.786H5119.71C5104.63 874.996 5054.37 936.744 4960.31 936.744C4844.72 936.744 4781.53 851.302 4781.53 747.192C4781.53 636.62 4853.33 557.64 4958.88 557.64C5040.73 557.64 5126.17 611.49 5126.17 742.166ZM4853.33 709.856H5057.24C5052.94 656.006 5018.47 617.952 4962.47 617.952C4893.54 617.952 4863.38 660.314 4853.33 709.856ZM5219.74 414.04H5288.67V931H5219.74V414.04ZM5560.08 557.64C5671.37 557.64 5738.14 643.082 5738.14 747.192C5738.14 851.302 5671.37 936.744 5560.08 936.744C5448.79 936.744 5382.02 851.302 5382.02 747.192C5382.02 643.082 5448.79 557.64 5560.08 557.64ZM5560.08 873.56C5629.01 873.56 5669.22 816.838 5669.22 747.192C5669.22 677.546 5629.01 620.824 5560.08 620.824C5491.15 620.824 5450.94 677.546 5450.94 747.192C5450.94 816.838 5491.15 873.56 5560.08 873.56ZM5900.37 563.384V592.104C5900.37 605.746 5898.22 616.516 5893.19 631.594C5891.04 637.338 5886.73 644.518 5893.19 646.672C5898.94 648.826 5901.09 641.646 5901.81 639.492C5923.35 592.104 5966.43 557.64 6025.3 557.64C6120.8 557.64 6187.57 638.056 6187.57 747.192C6187.57 856.328 6120.8 936.744 6025.3 936.744C5967.86 936.744 5924.07 902.998 5901.81 853.456C5901.09 851.302 5898.94 845.558 5894.63 846.994C5887.45 849.148 5891.04 855.61 5893.19 861.354C5898.22 877.15 5900.37 887.202 5900.37 900.126V1068.86H5831.44V563.384H5900.37ZM6010.94 873.56C6082.74 873.56 6118.64 815.402 6118.64 747.192C6118.64 678.982 6082.74 620.824 6010.94 620.824C5945.61 620.824 5900.37 678.982 5900.37 747.192C5900.37 815.402 5945.61 873.56 6010.94 873.56ZM6616.72 742.166C6616.72 752.218 6616 759.398 6614.57 767.296H6340.29C6345.32 826.172 6385.53 873.56 6452.3 873.56C6501.84 873.56 6526.25 849.148 6539.18 806.786H6610.26C6595.18 874.996 6544.92 936.744 6450.86 936.744C6335.27 936.744 6272.08 851.302 6272.08 747.192C6272.08 636.62 6343.88 557.64 6449.43 557.64C6531.28 557.64 6616.72 611.49 6616.72 742.166ZM6343.88 709.856H6547.79C6543.49 656.006 6509.02 617.952 6453.02 617.952C6384.09 617.952 6353.93 660.314 6343.88 709.856ZM6773.48 648.826C6777.07 649.544 6779.22 645.954 6780.66 642.364C6803.63 583.488 6824.45 557.64 6917.08 557.64V628.004C6810.09 620.824 6779.22 658.878 6779.22 755.09V931H6710.29V563.384H6779.22V587.796C6779.22 602.874 6777.78 614.362 6771.32 635.902C6769.89 641.646 6767.73 647.39 6773.48 648.826ZM6975.64 803.196H7043.13C7043.85 831.198 7066.82 876.432 7138.62 876.432C7208.99 876.432 7228.37 848.43 7228.37 824.736C7228.37 791.708 7197.5 781.656 7113.49 773.04C7017.28 762.988 6987.13 719.19 6987.13 671.084C6987.13 615.798 7037.39 557.64 7137.91 557.64C7230.53 557.64 7280.79 610.772 7285.81 679.7H7218.32C7216.17 656.006 7200.37 617.952 7135.75 617.952C7077.59 617.952 7056.05 641.646 7056.05 666.058C7056.05 689.752 7069.7 705.548 7149.39 714.164C7248.48 724.934 7297.3 753.654 7297.3 813.966C7297.3 888.638 7236.27 936.744 7135.75 936.744C7035.95 936.744 6979.23 884.33 6975.64 803.196Z" fill="#1E1E1E"/>
</svg>
