<svg width="7305" height="1244" viewBox="0 0 7305 1244" fill="none" xmlns="http://www.w3.org/2000/svg">
<g clip-path="url(#clip0_1_2)">
<path d="M2429.8 651.6C2422.8 476.4 2275.2 335.3 2094 335.3C1908.6 335.3 1757.4 483.2 1757.4 664.7C1757.4 846.1 1908.6 994 2094 994C2165.3 994 2231.8 972.1 2286.4 934.4V987.8H2431.2L2429.8 653V651.6ZM2094 852.9C1988.3 852.9 1902.3 768.7 1902.3 665.3C1902.3 561.9 1988.3 477.7 2094 477.7C2199.6 477.7 2285.7 561.9 2285.7 665.3C2285.7 768.7 2199.6 852.9 2094 852.9Z" fill="white"/>
<path d="M1503.3 798.2C1486 814.6 1466 828.3 1443.3 837.9C1421.2 847.5 1396.4 852.3 1370.3 852.3C1356.5 852.3 1343.4 850.9 1331 848.1C1318.6 845.4 1306.2 841.3 1294.5 836.5C1282.77 831.033 1271.74 824.867 1261.4 818C1251 810.5 1241.4 802.3 1233.1 793.4L1559.1 668.1L1697.6 614.7C1690 566.7 1672.8 521.6 1646.6 482.5C1587.3 393.5 1485.3 335.3 1370.3 335.3C1187.7 335.3 1038.8 483.2 1038.8 664.7C1038.8 681.8 1040.2 698.2 1042.9 714.6C1050.5 762.6 1067.8 807.8 1093.9 846.8C1109.1 868.7 1126.3 889.2 1146.3 907C1166.3 924.8 1187.7 940.6 1211.8 953.6C1235.2 966.6 1260.7 976.9 1287.6 983.7C1314.4 990.6 1342 994 1370.9 994C1416.4 994 1460.5 985.1 1499.8 968C1539.8 951.5 1574.9 926.9 1605.2 897.4C1635.6 867.3 1659.7 832.4 1676.2 792.7C1683.1 776.3 1688.6 758.5 1692.7 740.7H1542.5C1533.57 762.567 1520.5 781.733 1503.3 798.2ZM1370.9 476.4C1424.7 476.4 1473.6 499.6 1508.1 535.3L1182.1 660.5C1184.2 559.2 1268.3 476.4 1370.9 476.4Z" fill="white"/>
<path d="M2915.1 989H3059.3L3060 603.5C3060 437.9 2953.1 330.4 2788.2 330.4C2626.1 330.4 2513 442.8 2513 603.5L2512.3 988.3H2656.5L2657.2 599.3C2657.2 524.8 2712.3 470.4 2788.2 470.4C2906.2 470.4 2915.8 569 2915.8 599.3L2915.1 989Z" fill="white"/>
<path d="M677.503 329.4L565.003 241.8L474.003 362.5C336.003 297 166.403 333.6 69.8025 458.4C-42.6975 603.2 -16.3975 811.5 128.403 923.9C183.603 966.7 247.703 989.4 312.603 992.9C418.103 999.1 525.003 955 594.003 865.3C691.302 740.5 684.402 566.7 587.102 449.4L677.503 329.4ZM480.903 777.7C416.803 859.8 298.103 875 215.403 810.8C133.303 746.7 118.103 627.4 182.303 545.3C213.303 505.3 258.103 479.8 307.803 473.6C319.503 472.2 331.203 471.5 343.003 472.2C380.903 474.3 417.503 488.1 447.803 511.5C529.903 576.3 545.103 695.6 480.903 777.7Z" fill="white"/>
<path d="M684.403 928.3C665.803 952.4 645.103 973.8 622.303 993.8C600.203 1012.4 576.103 1029.7 550.603 1044.2C525.703 1058 498.803 1069.7 471.903 1078.7C445.003 1087.6 416.703 1093.8 388.503 1097.3C360.203 1100.7 331.903 1102.1 302.903 1100C274.003 1098 245.703 1093.1 218.103 1086.2L211.903 1109L183.603 1224.2C219.503 1233.8 256.003 1239.3 293.303 1242.1C294.603 1242.1 296.703 1242.1 298.103 1242.1C334.003 1244.2 370.503 1242.8 405.703 1238.7C443.003 1233.8 480.203 1225.5 516.103 1213.8C551.902 1202.1 587.103 1186.9 620.203 1168.3C654.003 1149.7 685.803 1126.9 715.403 1102.1C745.803 1076.6 773.403 1047.6 797.503 1015.9C800.903 1011.8 803.703 1006.9 807.203 1002.1L692.703 917.3C689.203 920.7 687.103 924.9 684.403 928.3Z" fill="white"/>
<path d="M916.102 725.5L915.503 0H771.302L772.003 722.1C772.003 874.5 874.102 982.8 1023.1 993.8V851.7C960.302 841.4 916.102 791.7 916.102 725.5Z" fill="white"/>
<path d="M3623.55 425.528C3812.39 425.528 3877.01 544.716 3877.01 678.264C3877.01 811.812 3808.08 931 3623.55 931H3451.95V425.528H3623.55ZM3640.07 867.816C3759.26 867.816 3802.34 774.476 3802.34 678.264C3802.34 582.052 3759.26 488.712 3640.07 488.712H3526.62V867.816H3640.07ZM4303.84 742.166C4303.84 752.218 4303.12 759.398 4301.69 767.296H4027.41C4032.44 826.172 4072.65 873.56 4139.42 873.56C4188.96 873.56 4213.37 849.148 4226.3 806.786H4297.38C4282.3 874.996 4232.04 936.744 4137.98 936.744C4022.39 936.744 3959.2 851.302 3959.2 747.192C3959.2 636.62 4031 557.64 4136.55 557.64C4218.4 557.64 4303.84 611.49 4303.84 742.166ZM4031 709.856H4234.91C4230.61 656.006 4196.14 617.952 4140.14 617.952C4071.21 617.952 4041.05 660.314 4031 709.856ZM4351.46 563.384H4426.13L4523.78 854.892C4528.09 867.098 4529.52 877.15 4529.52 889.356C4529.52 893.664 4530.24 898.69 4535.27 898.69C4540.29 898.69 4541.01 893.664 4541.01 889.356C4541.01 877.15 4542.45 867.098 4546.76 854.892L4644.4 563.384H4719.08L4586.96 931H4483.57L4351.46 563.384ZM5111.17 742.166C5111.17 752.218 5110.45 759.398 5109.02 767.296H4834.74C4839.77 826.172 4879.98 873.56 4946.75 873.56C4996.29 873.56 5020.7 849.148 5033.63 806.786H5104.71C5089.63 874.996 5039.37 936.744 4945.31 936.744C4829.72 936.744 4766.53 851.302 4766.53 747.192C4766.53 636.62 4838.33 557.64 4943.88 557.64C5025.73 557.64 5111.17 611.49 5111.17 742.166ZM4838.33 709.856H5042.24C5037.94 656.006 5003.47 617.952 4947.47 617.952C4878.54 617.952 4848.38 660.314 4838.33 709.856ZM5204.74 414.04H5273.67V931H5204.74V414.04ZM5545.08 557.64C5656.37 557.64 5723.14 643.082 5723.14 747.192C5723.14 851.302 5656.37 936.744 5545.08 936.744C5433.79 936.744 5367.02 851.302 5367.02 747.192C5367.02 643.082 5433.79 557.64 5545.08 557.64ZM5545.08 873.56C5614.01 873.56 5654.22 816.838 5654.22 747.192C5654.22 677.546 5614.01 620.824 5545.08 620.824C5476.15 620.824 5435.94 677.546 5435.94 747.192C5435.94 816.838 5476.15 873.56 5545.08 873.56ZM5885.37 563.384V592.104C5885.37 605.746 5883.22 616.516 5878.19 631.594C5876.04 637.338 5871.73 644.518 5878.19 646.672C5883.94 648.826 5886.09 641.646 5886.81 639.492C5908.35 592.104 5951.43 557.64 6010.3 557.64C6105.8 557.64 6172.57 638.056 6172.57 747.192C6172.57 856.328 6105.8 936.744 6010.3 936.744C5952.86 936.744 5909.07 902.998 5886.81 853.456C5886.09 851.302 5883.94 845.558 5879.63 846.994C5872.45 849.148 5876.04 855.61 5878.19 861.354C5883.22 877.15 5885.37 887.202 5885.37 900.126V1068.86H5816.44V563.384H5885.37ZM5995.94 873.56C6067.74 873.56 6103.64 815.402 6103.64 747.192C6103.64 678.982 6067.74 620.824 5995.94 620.824C5930.61 620.824 5885.37 678.982 5885.37 747.192C5885.37 815.402 5930.61 873.56 5995.94 873.56ZM6601.72 742.166C6601.72 752.218 6601 759.398 6599.57 767.296H6325.29C6330.32 826.172 6370.53 873.56 6437.3 873.56C6486.84 873.56 6511.25 849.148 6524.18 806.786H6595.26C6580.18 874.996 6529.92 936.744 6435.86 936.744C6320.27 936.744 6257.08 851.302 6257.08 747.192C6257.08 636.62 6328.88 557.64 6434.43 557.64C6516.28 557.64 6601.72 611.49 6601.72 742.166ZM6328.88 709.856H6532.79C6528.49 656.006 6494.02 617.952 6438.02 617.952C6369.09 617.952 6338.93 660.314 6328.88 709.856ZM6758.48 648.826C6762.07 649.544 6764.22 645.954 6765.66 642.364C6788.63 583.488 6809.45 557.64 6902.08 557.64V628.004C6795.09 620.824 6764.22 658.878 6764.22 755.09V931H6695.29V563.384H6764.22V587.796C6764.22 602.874 6762.78 614.362 6756.32 635.902C6754.89 641.646 6752.73 647.39 6758.48 648.826ZM6960.64 803.196H7028.13C7028.85 831.198 7051.82 876.432 7123.62 876.432C7193.99 876.432 7213.37 848.43 7213.37 824.736C7213.37 791.708 7182.5 781.656 7098.49 773.04C7002.28 762.988 6972.13 719.19 6972.13 671.084C6972.13 615.798 7022.39 557.64 7122.91 557.64C7215.53 557.64 7265.79 610.772 7270.81 679.7H7203.32C7201.17 656.006 7185.37 617.952 7120.75 617.952C7062.59 617.952 7041.05 641.646 7041.05 666.058C7041.05 689.752 7054.7 705.548 7134.39 714.164C7233.48 724.934 7282.3 753.654 7282.3 813.966C7282.3 888.638 7221.27 936.744 7120.75 936.744C7020.95 936.744 6964.23 884.33 6960.64 803.196Z" fill="#D7FD48"/>
</g>
<defs>
<clipPath id="clip0_1_2">
<rect width="7305" height="1243.07" fill="white"/>
</clipPath>
</defs>
</svg>
