<svg width="7305" height="1244" viewBox="0 0 7305 1244" fill="none" xmlns="http://www.w3.org/2000/svg">
<g clip-path="url(#clip0_1_2)">
<path d="M2429.8 651.6C2422.8 476.4 2275.2 335.3 2094 335.3C1908.6 335.3 1757.4 483.2 1757.4 664.7C1757.4 846.1 1908.6 994 2094 994C2165.3 994 2231.8 972.1 2286.4 934.4V987.8H2431.2L2429.8 653V651.6ZM2094 852.9C1988.3 852.9 1902.3 768.7 1902.3 665.3C1902.3 561.9 1988.3 477.7 2094 477.7C2199.6 477.7 2285.7 561.9 2285.7 665.3C2285.7 768.7 2199.6 852.9 2094 852.9Z" fill="white"/>
<path d="M1503.3 798.2C1486 814.6 1466 828.3 1443.3 837.9C1421.2 847.5 1396.4 852.3 1370.3 852.3C1356.5 852.3 1343.4 850.9 1331 848.1C1318.6 845.4 1306.2 841.3 1294.5 836.5C1282.77 831.033 1271.74 824.867 1261.4 818C1251 810.5 1241.4 802.3 1233.1 793.4L1559.1 668.1L1697.6 614.7C1690 566.7 1672.8 521.6 1646.6 482.5C1587.3 393.5 1485.3 335.3 1370.3 335.3C1187.7 335.3 1038.8 483.2 1038.8 664.7C1038.8 681.8 1040.2 698.2 1042.9 714.6C1050.5 762.6 1067.8 807.8 1093.9 846.8C1109.1 868.7 1126.3 889.2 1146.3 907C1166.3 924.8 1187.7 940.6 1211.8 953.6C1235.2 966.6 1260.7 976.9 1287.6 983.7C1314.4 990.6 1342 994 1370.9 994C1416.4 994 1460.5 985.1 1499.8 968C1539.8 951.5 1574.9 926.9 1605.2 897.4C1635.6 867.3 1659.7 832.4 1676.2 792.7C1683.1 776.3 1688.6 758.5 1692.7 740.7H1542.5C1533.57 762.567 1520.5 781.733 1503.3 798.2ZM1370.9 476.4C1424.7 476.4 1473.6 499.6 1508.1 535.3L1182.1 660.5C1184.2 559.2 1268.3 476.4 1370.9 476.4Z" fill="white"/>
<path d="M2915.1 989H3059.3L3060 603.5C3060 437.9 2953.1 330.4 2788.2 330.4C2626.1 330.4 2513 442.8 2513 603.5L2512.3 988.3H2656.5L2657.2 599.3C2657.2 524.8 2712.3 470.4 2788.2 470.4C2906.2 470.4 2915.8 569 2915.8 599.3L2915.1 989Z" fill="white"/>
<path d="M677.503 329.4L565.003 241.8L474.003 362.5C336.003 297 166.403 333.6 69.8025 458.4C-42.6975 603.2 -16.3975 811.5 128.403 923.9C183.603 966.7 247.703 989.4 312.603 992.9C418.103 999.1 525.003 955 594.003 865.3C691.302 740.5 684.402 566.7 587.102 449.4L677.503 329.4ZM480.903 777.7C416.803 859.8 298.103 875 215.403 810.8C133.303 746.7 118.103 627.4 182.303 545.3C213.303 505.3 258.103 479.8 307.803 473.6C319.503 472.2 331.203 471.5 343.003 472.2C380.903 474.3 417.503 488.1 447.803 511.5C529.903 576.3 545.103 695.6 480.903 777.7Z" fill="white"/>
<path d="M684.403 928.3C665.803 952.4 645.103 973.8 622.303 993.8C600.203 1012.4 576.103 1029.7 550.603 1044.2C525.703 1058 498.803 1069.7 471.903 1078.7C445.003 1087.6 416.703 1093.8 388.503 1097.3C360.203 1100.7 331.903 1102.1 302.903 1100C274.003 1098 245.703 1093.1 218.103 1086.2L211.903 1109L183.603 1224.2C219.503 1233.8 256.003 1239.3 293.303 1242.1C294.603 1242.1 296.703 1242.1 298.103 1242.1C334.003 1244.2 370.503 1242.8 405.703 1238.7C443.003 1233.8 480.203 1225.5 516.103 1213.8C551.902 1202.1 587.103 1186.9 620.203 1168.3C654.003 1149.7 685.803 1126.9 715.403 1102.1C745.803 1076.6 773.403 1047.6 797.503 1015.9C800.903 1011.8 803.703 1006.9 807.203 1002.1L692.703 917.3C689.203 920.7 687.103 924.9 684.403 928.3Z" fill="white"/>
<path d="M916.102 725.5L915.503 0H771.302L772.003 722.1C772.003 874.5 874.102 982.8 1023.1 993.8V851.7C960.302 841.4 916.102 791.7 916.102 725.5Z" fill="white"/>
<path d="M3640.07 425.528C3782.23 425.528 3831.06 493.02 3831.06 583.488C3831.06 673.956 3773.62 741.448 3651.56 741.448H3526.62V931H3451.95V425.528H3640.07ZM3650.84 678.264C3720.48 678.264 3756.38 637.338 3756.38 583.488C3756.38 523.894 3720.48 488.712 3650.84 488.712H3526.62V678.264H3650.84ZM3935.9 414.04H4004.83V931H3935.9V414.04ZM4103.78 828.326C4103.78 744.32 4165.53 718.472 4235.9 713.446C4301.95 708.42 4368.73 716.318 4368.01 678.264C4367.29 648.108 4350.06 617.952 4274.67 617.952C4210.05 617.952 4187.79 642.364 4182.76 678.264H4115.27C4128.2 594.258 4192.82 557.64 4277.54 557.64C4360.11 557.64 4436.94 586.36 4436.94 721.344V931H4368.01V895.818C4368.01 882.176 4369.44 871.406 4375.91 852.738C4377.34 846.276 4380.21 840.532 4375.19 838.378C4369.44 836.224 4368.01 841.968 4366.57 845.558C4345.75 900.126 4296.93 936.744 4230.15 936.744C4160.51 936.744 4103.78 890.792 4103.78 828.326ZM4368.01 732.832C4345.75 760.116 4296.21 760.834 4240.2 768.732C4195.69 775.194 4172.71 790.99 4172.71 824.736C4172.71 854.174 4197.12 881.458 4256.72 873.56C4312.72 866.38 4367.29 825.454 4368.01 732.832ZM4748.08 623.696H4644.68V816.12C4644.68 857.764 4653.3 870.688 4693.51 870.688H4748.08V931H4687.76C4611.66 931 4575.76 902.998 4575.76 823.3V623.696H4506.83V563.384H4575.76V459.992H4644.68V563.384H4748.08V623.696ZM4999.79 474.352C4959.58 474.352 4950.97 487.276 4950.97 528.92V563.384H5054.36V623.696H4950.97V931H4882.04V623.696H4824.6V563.384H4882.04V521.74C4882.04 442.042 4917.94 414.04 4994.05 414.04H5054.36V474.352H4999.79ZM5291.25 557.64C5402.54 557.64 5469.32 643.082 5469.32 747.192C5469.32 851.302 5402.54 936.744 5291.25 936.744C5179.96 936.744 5113.19 851.302 5113.19 747.192C5113.19 643.082 5179.96 557.64 5291.25 557.64ZM5291.25 873.56C5360.18 873.56 5400.39 816.838 5400.39 747.192C5400.39 677.546 5360.18 620.824 5291.25 620.824C5222.33 620.824 5182.12 677.546 5182.12 747.192C5182.12 816.838 5222.33 873.56 5291.25 873.56ZM5625.8 648.826C5629.39 649.544 5631.55 645.954 5632.98 642.364C5655.96 583.488 5676.78 557.64 5769.4 557.64V628.004C5662.42 620.824 5631.55 658.878 5631.55 755.09V931H5562.62V563.384H5631.55V587.796C5631.55 602.874 5630.11 614.362 5623.65 635.902C5622.21 641.646 5620.06 647.39 5625.8 648.826ZM6248.58 557.64C6317.51 557.64 6373.51 593.54 6373.51 706.984V931H6304.58V698.368C6304.58 640.928 6276.58 617.952 6232.06 617.952C6191.86 617.952 6149.49 655.288 6149.49 722.78V931H6080.57V706.984C6080.57 649.544 6061.18 617.952 6014.51 617.952C5969.99 617.952 5925.48 665.34 5925.48 738.576V931H5856.55V563.384H5925.48V587.796C5925.48 601.438 5924.04 613.644 5917.58 634.466C5916.14 640.21 5913.99 645.236 5919.02 646.672C5924.04 648.108 5926.2 643.8 5926.91 640.928C5944.86 590.668 5987.23 557.64 6037.49 557.64C6084.16 557.64 6120.77 590.668 6131.54 635.902C6132.26 639.492 6134.42 641.646 6138.72 641.646C6143.75 641.646 6145.19 639.492 6146.62 635.902C6166.01 585.642 6203.34 557.64 6248.58 557.64Z" fill="#D7FD48"/>
</g>
<defs>
<clipPath id="clip0_1_2">
<rect width="7305" height="1243.07" fill="white"/>
</clipPath>
</defs>
</svg>
