<svg width="6424" height="1245" viewBox="0 0 6424 1245" fill="none" xmlns="http://www.w3.org/2000/svg">
<path d="M2430.8 651.6C2423.8 476.4 2276.2 335.3 2095 335.3C1909.6 335.3 1758.4 483.2 1758.4 664.7C1758.4 846.1 1909.6 994 2095 994C2166.3 994 2232.8 972.1 2287.4 934.4V987.8H2432.2L2430.8 653V651.6ZM2095 852.9C1989.3 852.9 1903.3 768.7 1903.3 665.3C1903.3 561.9 1989.3 477.7 2095 477.7C2200.6 477.7 2286.7 561.9 2286.7 665.3C2286.7 768.7 2200.6 852.9 2095 852.9Z" fill="#343CED"/>
<path d="M1504.3 798.2C1487 814.6 1467 828.3 1444.3 837.9C1422.2 847.5 1397.4 852.3 1371.3 852.3C1357.5 852.3 1344.4 850.9 1332 848.1C1319.6 845.4 1307.2 841.3 1295.5 836.5C1283.77 831.033 1272.73 824.867 1262.4 818C1252 810.5 1242.4 802.3 1234.1 793.4L1560.1 668.1L1698.6 614.7C1691 566.7 1673.8 521.6 1647.6 482.5C1588.3 393.5 1486.3 335.3 1371.3 335.3C1188.7 335.3 1039.8 483.2 1039.8 664.7C1039.8 681.8 1041.2 698.2 1043.9 714.6C1051.5 762.6 1068.8 807.8 1094.9 846.8C1110.1 868.7 1127.3 889.2 1147.3 907C1167.3 924.8 1188.7 940.6 1212.8 953.6C1236.2 966.6 1261.7 976.9 1288.6 983.7C1315.4 990.6 1343 994 1371.9 994C1417.4 994 1461.5 985.1 1500.8 968C1540.8 951.5 1575.9 926.9 1606.2 897.4C1636.6 867.3 1660.7 832.4 1677.2 792.7C1684.1 776.3 1689.6 758.5 1693.7 740.7H1543.5C1534.57 762.567 1521.5 781.733 1504.3 798.2ZM1371.9 476.4C1425.7 476.4 1474.6 499.6 1509.1 535.3L1183.1 660.5C1185.2 559.2 1269.3 476.4 1371.9 476.4Z" fill="#343CED"/>
<path d="M2916.1 989H3060.3L3061 603.5C3061 437.9 2954.1 330.4 2789.2 330.4C2627.1 330.4 2514 442.8 2514 603.5L2513.3 988.3H2657.5L2658.2 599.3C2658.2 524.8 2713.3 470.4 2789.2 470.4C2907.2 470.4 2916.8 569 2916.8 599.3L2916.1 989Z" fill="#343CED"/>
<path d="M678.5 329.4L566 241.8L475 362.5C337 297 167.4 333.6 70.8001 458.4C-41.6999 603.2 -15.3999 811.5 129.4 923.9C184.6 966.7 248.7 989.4 313.6 992.9C419.1 999.1 526 955 595 865.3C692.3 740.5 685.4 566.7 588.1 449.4L678.5 329.4ZM481.9 777.7C417.8 859.8 299.1 875 216.4 810.8C134.3 746.7 119.1 627.4 183.3 545.3C214.3 505.3 259.1 479.8 308.8 473.6C320.5 472.2 332.2 471.5 344 472.2C381.9 474.3 418.5 488.1 448.8 511.5C530.9 576.3 546.1 695.6 481.9 777.7Z" fill="#343CED"/>
<path d="M685.4 929.3C666.8 953.4 646.1 974.8 623.3 994.8C601.2 1013.4 577.1 1030.7 551.6 1045.2C526.7 1059 499.8 1070.7 472.9 1079.7C446 1088.6 417.7 1094.8 389.5 1098.3C361.2 1101.7 332.9 1103.1 303.9 1101C275 1099 246.7 1094.1 219.1 1087.2L212.9 1110L184.6 1225.2C220.5 1234.8 257 1240.3 294.3 1243.1C295.6 1243.1 297.7 1243.1 299.1 1243.1C335 1245.2 371.5 1243.8 406.7 1239.7C444 1234.8 481.2 1226.5 517.1 1214.8C552.9 1203.1 588.1 1187.9 621.2 1169.3C655 1150.7 686.8 1127.9 716.4 1103.1C746.8 1077.6 774.4 1048.6 798.5 1016.9C801.9 1012.8 804.7 1007.9 808.2 1003.1L693.7 918.3C690.2 921.7 688.1 925.9 685.4 929.3Z" fill="#343CED"/>
<path d="M917.1 725.5L916.5 0H772.3L773 722.1C773 874.5 875.1 982.8 1024.1 993.8V851.7C961.3 841.4 917.1 791.7 917.1 725.5Z" fill="#343CED"/>
<path d="M3656.07 425.528C3798.23 425.528 3847.06 493.02 3847.06 583.488C3847.06 673.956 3789.62 741.448 3667.56 741.448H3542.62V931H3467.95V425.528H3656.07ZM3666.84 678.264C3736.48 678.264 3772.38 637.338 3772.38 583.488C3772.38 523.894 3736.48 488.712 3666.84 488.712H3542.62V678.264H3666.84ZM3951.9 414.04H4020.83V931H3951.9V414.04ZM4119.78 828.326C4119.78 744.32 4181.53 718.472 4251.9 713.446C4317.95 708.42 4384.73 716.318 4384.01 678.264C4383.29 648.108 4366.06 617.952 4290.67 617.952C4226.05 617.952 4203.79 642.364 4198.76 678.264H4131.27C4144.2 594.258 4208.82 557.64 4293.54 557.64C4376.11 557.64 4452.94 586.36 4452.94 721.344V931H4384.01V895.818C4384.01 882.176 4385.44 871.406 4391.91 852.738C4393.34 846.276 4396.21 840.532 4391.19 838.378C4385.44 836.224 4384.01 841.968 4382.57 845.558C4361.75 900.126 4312.93 936.744 4246.15 936.744C4176.51 936.744 4119.78 890.792 4119.78 828.326ZM4384.01 732.832C4361.75 760.116 4312.21 760.834 4256.2 768.732C4211.69 775.194 4188.71 790.99 4188.71 824.736C4188.71 854.174 4213.12 881.458 4272.72 873.56C4328.72 866.38 4383.29 825.454 4384.01 732.832ZM4764.08 623.696H4660.68V816.12C4660.68 857.764 4669.3 870.688 4709.51 870.688H4764.08V931H4703.76C4627.66 931 4591.76 902.998 4591.76 823.3V623.696H4522.83V563.384H4591.76V459.992H4660.68V563.384H4764.08V623.696ZM5015.79 474.352C4975.58 474.352 4966.97 487.276 4966.97 528.92V563.384H5070.36V623.696H4966.97V931H4898.04V623.696H4840.6V563.384H4898.04V521.74C4898.04 442.042 4933.94 414.04 5010.05 414.04H5070.36V474.352H5015.79ZM5307.25 557.64C5418.54 557.64 5485.32 643.082 5485.32 747.192C5485.32 851.302 5418.54 936.744 5307.25 936.744C5195.96 936.744 5129.19 851.302 5129.19 747.192C5129.19 643.082 5195.96 557.64 5307.25 557.64ZM5307.25 873.56C5376.18 873.56 5416.39 816.838 5416.39 747.192C5416.39 677.546 5376.18 620.824 5307.25 620.824C5238.33 620.824 5198.12 677.546 5198.12 747.192C5198.12 816.838 5238.33 873.56 5307.25 873.56ZM5641.8 648.826C5645.39 649.544 5647.55 645.954 5648.98 642.364C5671.96 583.488 5692.78 557.64 5785.4 557.64V628.004C5678.42 620.824 5647.55 658.878 5647.55 755.09V931H5578.62V563.384H5647.55V587.796C5647.55 602.874 5646.11 614.362 5639.65 635.902C5638.21 641.646 5636.06 647.39 5641.8 648.826ZM6264.58 557.64C6333.51 557.64 6389.51 593.54 6389.51 706.984V931H6320.58V698.368C6320.58 640.928 6292.58 617.952 6248.06 617.952C6207.86 617.952 6165.49 655.288 6165.49 722.78V931H6096.57V706.984C6096.57 649.544 6077.18 617.952 6030.51 617.952C5985.99 617.952 5941.48 665.34 5941.48 738.576V931H5872.55V563.384H5941.48V587.796C5941.48 601.438 5940.04 613.644 5933.58 634.466C5932.14 640.21 5929.99 645.236 5935.02 646.672C5940.04 648.108 5942.2 643.8 5942.91 640.928C5960.86 590.668 6003.23 557.64 6053.49 557.64C6100.16 557.64 6136.77 590.668 6147.54 635.902C6148.26 639.492 6150.42 641.646 6154.72 641.646C6159.75 641.646 6161.19 639.492 6162.62 635.902C6182.01 585.642 6219.34 557.64 6264.58 557.64Z" fill="#1E1E1E"/>
</svg>
